<svg width="76" height="76" viewBox="0 0 76 76" fill="none" xmlns="http://www.w3.org/2000/svg">
<path d="M68.875 58.1875C68.875 61.022 67.749 63.7404 65.7447 65.7447C63.7404 67.749 61.022 68.875 58.1875 68.875H17.8125C14.978 68.875 12.2596 67.749 10.2553 65.7447C8.251 63.7404 7.125 61.022 7.125 58.1875V23.75L38 21.375L68.875 23.75V58.1875Z" fill="url(#paint0_linear_151_238)"/>
<path d="M68.875 58.1875C68.875 61.022 67.749 63.7404 65.7447 65.7447C63.7404 67.749 61.022 68.875 58.1875 68.875H17.8125C14.978 68.875 12.2596 67.749 10.2553 65.7447C8.251 63.7404 7.125 61.022 7.125 58.1875V23.75L38 21.375L68.875 23.75V58.1875Z" fill="url(#paint1_linear_151_238)"/>
<g filter="url(#filter0_d_151_238)">
<path d="M24.9375 42.75C25.8823 42.75 26.7885 42.3747 27.4566 41.7066C28.1247 41.0385 28.5 40.1323 28.5 39.1875C28.5 38.2427 28.1247 37.3365 27.4566 36.6684C26.7885 36.0003 25.8823 35.625 24.9375 35.625C23.9927 35.625 23.0865 36.0003 22.4184 36.6684C21.7503 37.3365 21.375 38.2427 21.375 39.1875C21.375 40.1323 21.7503 41.0385 22.4184 41.7066C23.0865 42.3747 23.9927 42.75 24.9375 42.75ZM28.5 51.0625C28.5 52.0073 28.1247 52.9135 27.4566 53.5816C26.7885 54.2497 25.8823 54.625 24.9375 54.625C23.9927 54.625 23.0865 54.2497 22.4184 53.5816C21.7503 52.9135 21.375 52.0073 21.375 51.0625C21.375 50.1177 21.7503 49.2115 22.4184 48.5434C23.0865 47.8753 23.9927 47.5 24.9375 47.5C25.8823 47.5 26.7885 47.8753 27.4566 48.5434C28.1247 49.2115 28.5 50.1177 28.5 51.0625ZM38 54.625C38.9448 54.625 39.851 54.2497 40.5191 53.5816C41.1872 52.9135 41.5625 52.0073 41.5625 51.0625C41.5625 50.1177 41.1872 49.2115 40.5191 48.5434C39.851 47.8753 38.9448 47.5 38 47.5C37.0552 47.5 36.149 47.8753 35.4809 48.5434C34.8128 49.2115 34.4375 50.1177 34.4375 51.0625C34.4375 52.0073 34.8128 52.9135 35.4809 53.5816C36.149 54.2497 37.0552 54.625 38 54.625ZM41.5625 39.1875C41.5625 40.1323 41.1872 41.0385 40.5191 41.7066C39.851 42.3747 38.9448 42.75 38 42.75C37.0552 42.75 36.149 42.3747 35.4809 41.7066C34.8128 41.0385 34.4375 40.1323 34.4375 39.1875C34.4375 38.2427 34.8128 37.3365 35.4809 36.6684C36.149 36.0003 37.0552 35.625 38 35.625C38.9448 35.625 39.851 36.0003 40.5191 36.6684C41.1872 37.3365 41.5625 38.2427 41.5625 39.1875ZM51.0625 42.75C52.0073 42.75 52.9135 42.3747 53.5816 41.7066C54.2497 41.0385 54.625 40.1323 54.625 39.1875C54.625 38.2427 54.2497 37.3365 53.5816 36.6684C52.9135 36.0003 52.0073 35.625 51.0625 35.625C50.1177 35.625 49.2115 36.0003 48.5434 36.6684C47.8753 37.3365 47.5 38.2427 47.5 39.1875C47.5 40.1323 47.8753 41.0385 48.5434 41.7066C49.2115 42.3747 50.1177 42.75 51.0625 42.75Z" fill="url(#paint2_linear_151_238)"/>
</g>
<path d="M7.125 17.8125C7.125 14.978 8.251 12.2596 10.2553 10.2553C12.2596 8.251 14.978 7.125 17.8125 7.125H58.1875C61.022 7.125 63.7404 8.251 65.7447 10.2553C67.749 12.2596 68.875 14.978 68.875 17.8125V23.75H7.125V17.8125Z" fill="url(#paint3_linear_151_238)"/>
<defs>
<filter id="filter0_d_151_238" x="20.041" y="34.958" width="35.918" height="21.668" filterUnits="userSpaceOnUse" color-interpolation-filters="sRGB">
<feFlood flood-opacity="0" result="BackgroundImageFix"/>
<feColorMatrix in="SourceAlpha" type="matrix" values="0 0 0 0 0 0 0 0 0 0 0 0 0 0 0 0 0 0 127 0" result="hardAlpha"/>
<feOffset dy="0.667"/>
<feGaussianBlur stdDeviation="0.667"/>
<feColorMatrix type="matrix" values="0 0 0 0 0.1242 0 0 0 0 0.323337 0 0 0 0 0.7958 0 0 0 0.32 0"/>
<feBlend mode="normal" in2="BackgroundImageFix" result="effect1_dropShadow_151_238"/>
<feBlend mode="normal" in="SourceGraphic" in2="effect1_dropShadow_151_238" result="shape"/>
</filter>
<linearGradient id="paint0_linear_151_238" x1="49.1482" y1="74.708" x2="32.0435" y2="23.5719" gradientUnits="userSpaceOnUse">
<stop stop-color="#B3E0FF"/>
<stop offset="1" stop-color="#B3E0FF"/>
</linearGradient>
<linearGradient id="paint1_linear_151_238" x1="44.6167" y1="40.8073" x2="53.0884" y2="79.7478" gradientUnits="userSpaceOnUse">
<stop stop-color="#DCF8FF" stop-opacity="0"/>
<stop offset="1" stop-color="#FF6CE8" stop-opacity="0.7"/>
</linearGradient>
<linearGradient id="paint2_linear_151_238" x1="34.9766" y1="33.4329" x2="40.7004" y2="71.4804" gradientUnits="userSpaceOnUse">
<stop stop-color="#0078D4"/>
<stop offset="1" stop-color="#0067BF"/>
</linearGradient>
<linearGradient id="paint3_linear_151_238" x1="7.125" y1="7.125" x2="59.5389" y2="-10.336" gradientUnits="userSpaceOnUse">
<stop stop-color="#0094F0"/>
<stop offset="1" stop-color="#2764E7"/>
</linearGradient>
</defs>
</svg>
