<svg width="324" height="227" viewBox="0 0 324 227" fill="none" xmlns="http://www.w3.org/2000/svg">
<rect y="40" width="287" height="187" rx="12" fill="#C5E6FF"/>
<rect x="11" y="49" width="265" height="170" rx="12" fill="white"/>
<path opacity="0.36" d="M280.438 63C280.438 66.1667 279.854 69.0417 278.688 71.625C277.521 74.1667 276.062 76.5417 274.312 78.75C272.604 80.9583 270.875 83.0833 269.125 85.125C267.417 87.1667 265.979 89.25 264.812 91.375C263.646 93.5 263.062 95.7708 263.062 98.1875C263.062 98.6458 263.146 99.2917 263.312 100.125C263.479 100.958 263.562 101.375 263.562 101.375L255.75 101.25C255 99.7083 254.375 98.1042 253.875 96.4375C253.417 94.7292 253.188 92.625 253.188 90.125C253.188 87.5833 253.688 85.125 254.688 82.75C255.729 80.3333 256.917 78.0208 258.25 75.8125C259.583 73.6042 260.75 71.5625 261.75 69.6875C262.792 67.8125 263.312 66.1458 263.312 64.6875C263.312 62.4792 262.583 60.6458 261.125 59.1875C259.667 57.7292 257.625 57 255 57C252.5 57 250.688 57.5625 249.562 58.6875C248.438 59.8125 247.646 60.9583 247.188 62.125H242.562C241.646 61.2917 240.896 60.25 240.312 59C239.771 57.75 239.5 56.6458 239.5 55.6875C239.5 54.0208 240.146 52.25 241.438 50.375C242.771 48.4583 244.875 46.8333 247.75 45.5C250.625 44.125 254.354 43.4375 258.938 43.4375C263.562 43.4375 267.479 44.3958 270.688 46.3125C273.896 48.1875 276.312 50.625 277.938 53.625C279.604 56.5833 280.438 59.7083 280.438 63ZM269.062 117.125C269.062 119.875 268.125 122.208 266.25 124.125C264.375 126.042 262.083 127 259.375 127C256.625 127 254.292 126.042 252.375 124.125C250.458 122.208 249.5 119.875 249.5 117.125C249.5 114.417 250.458 112.125 252.375 110.25C254.292 108.375 256.625 107.438 259.375 107.438C262.083 107.438 264.375 108.375 266.25 110.25C268.125 112.125 269.062 114.417 269.062 117.125Z" fill="#9AACE9" fill-opacity="0.947917"/>
</svg>
